/* XPM */
/* ((((x / y) / (y << x)) - ((c | c) - (y ^ c))) / (((x | x) & (x + y)) ^ ((x % x) ^ (c - c)))), c = 14 */
static const char *image[] = {
"64 64 2 1",
". c #000000",
"  c #ffffff",
"................................................................",
"................................................................",
"................................................................",
"................................................................",
"...... ........ ................................................",
"...... .........................................................",
"......   ....  ....    .........................................",
"..... ... .... .... ... ........................................",
"..... ... ... .... .... ........................................",
".... ... ... ..... ... .........................................",
"....    ....  ....    ..........................................",
"................. ..............................................",
"................. ..............................................",
"................................................................",
"................................................................",
"................................................................",
".  ..............  ..............................  .............",
".. ............... ............................... .............",
". . ... ....... . . ... ....................... . . ... ........",
"... ... ....... ... ... ....................... ... ... ........",
".  ..  ......  ..  ..  ......................  ..  ..  .........",
".. ... ....... ... ... ....................... ... ... .........",
". . . ..... . ... . . ..................... . ... . . ..........",
"................................................................",
". ....... ....... ....................... ....... ..............",
"................................................................",
". . ... . . ..... . ................... . . ..... . ............",
"................................................................",
"................................................................",
"................................................................",
"................................................................",
"................................................................",
".     ...........................     ..........................",
".. .  ............................ .  ..........................",
". .   . ....... ............... . .   . ....... ................",
"...  .. ....... ............... ...  .. ....... ................",
".   .   .....   .............   .   .   .....   ................",
".. ...  ......  ..............  .. ...  ......  ................",
". . .  .... .  ............ .  .. . .  .... .  .................",
"... .  .... .  ............ .  .... .  .... .  .................",
".    ....    ............    ....    ....    ...................",
".. .  .... .  ............ .  .... .  .... .  ..................",
". . ... . . ........... . . ..... . ... . . ....................",
"... ... ... ........... ... ....... ... ... ....................",
".   .   .   .........   .   .....   .   .   ....................",
".. ... ... ........... ... ....... ... ... .....................",
". . . ... ......... . ... ....... . . ... ......................",
"... ............... ............... ............................",
".        ........        ........        .......................",
".. .   .  . ...... .   .  . ...... .   .  . ....................",
". .   . ....... . .   . ......... .   . ........................",
"...  .. ....... ...  .. ...........  .. ........................",
".   .   .....   .   .   .........   .   ........................",
".. ...  ......  .. ...  .......... ...  ........................",
". . .   ... .   . . .   ......... . .   ........................",
"... .   ... .   ... .   ........... .   ........................",
".      ..      ..      ..........      .........................",
".. .   ... .   ... .   ........... .   .........................",
". .   . . .   ... .   ........... .   ..........................",
"...  .. ...  ......  ..............  ...........................",
".   .   .   .....   .............   ............................",
".. ...  .. ....... ............... .............................",
". . .   . ....... ............... ..............................",
"... .  .........................................................",
};
