/* XPM */
/* ((((x % x) / (y << c)) ^ ((y >> c) / (c >> c))) * (((c / c) * (y & x)) & ((x << y) - (c ^ x)))), c = 17 */
static const char *image[] = {
"64 64 2 1",
". c #000000",
"  c #ffffff",
"................................................................",
"................................................................",
"................................................................",
"...      ..  ..          ..          ...........................",
"...      ..  ..          ..          ...........................",
"...  ..  ..........  ......  ......  ...........................",
"...  ..  ..........  ......  ......  ...........................",
"...          ..  ..  ..  ..          ...........................",
"...          ..  ..  ..  ..          ...........................",
"...  ......  ......  ......  ...................................",
"...  ......  ......  ......  ...................................",
"...          ..          ..  ..  ..  ...........................",
"...          ..          ..  ..  ..  ...........................",
"................................................................",
"................................................................",
"................................................................",
"................. . . . . . . . ................. . . . . . . . ",
"................ .............. ................ .............. ",
"................ ....      ..................... ....      .....",
"................ ..  ..  ...  .................. ..  ..  ...  ..",
"................   . . . . . . .................   . . . . . . .",
"................ .              ................ .              ",
"................ .              ................ .              ",
"................ .              ................ .              ",
"........ . . . .. . . .         ........ . . . .. . . .         ",
".........      . ........       .........      . ........       ",
".........  ..    ....      ..   .........  ..    ....      ..   ",
"........... . .  ..  ..  ..   . ........... . .  ..  ..  ..   . ",
"......... ......   . . .   . . .......... ......   . . .   . . .",
"......... ...... .              ......... ...... .              ",
"......... ...... .              ......... ...... .              ",
"......... ...... .              ......... ...... .              ",
"................................                ................",
"...............................................  ...............",
".....................................           .          .....",
"...................................    .....    .    ....     ..",
"..... ....... ....... ....... ...   .   ..  .   .  ..  ..  ..  .",
"..... ....... ....... ....... ... . . . . . . . ... . . . . . . ",
"..... ....... ....... ....... ....... ....... ... ... ....... ..",
"..... ....... ....... ....... ....... ....... ... ... ....... ..",
"........ . . . ......... . . . .                ........ . . . .",
".........      ..........      ..........        ........      .",
".........  ..   .........  ..   .....           .          ..   ",
"........... . . ........... . . ...    ....     .    ....     . ",
"..... ... ... ....... ... ... ...   .   .   .   .  ..  ..  ..  .",
"..... ... ... ....... ... ... ... . . . . . . . ... . . . . . . ",
"..... ... ... ....... ... ... ....... ... ... ... ... ... ... ..",
"..... ... ... ....... ... ... ....... ... ... ... ... ... ... ..",
"................. . . . . . . .                 . . . . . . . . ",
"................ .............. ...............  .............. ",
"... ... ... ...  .. .       ... ... .                       ... ",
"... ... ... ...  ..  ..  ..   . ...     ...          ..       . ",
"..... ....... ..   .   . . .   ..   .   ..  .      .   .   .   .",
"..... ....... .. .              . . . . . . . .  .              ",
"... . . ... . .  .              ... . . ... . .                 ",
"... . . ... . .  .              ... . . ... . .                 ",
"........ . . . .. . . .                         . . . .         ",
".........      . ........       .........        ........       ",
"... ... .   .    .. .       .   ... .                       .   ",
"... ... ... . .  ..  ..  ..   . ...     ...          ..       . ",
"..... ... ... ..   .   .   .   ..   .   .   .      .   .   .   .",
"..... ... ... .. .              . . . . . . . .  .              ",
"... . . . . . .  .              ... . . . . . .                 ",
"... . . . . . .  .              ... . . . . . .                 ",
};
